<?xml version="1.0" standalone="no"?><!DOCTYPE svg PUBLIC "-//W3C//DTD SVG 1.1//EN" "http://www.w3.org/Graphics/SVG/1.1/DTD/svg11.dtd"><svg t="1704129422737" class="icon" viewBox="0 0 1024 1024" version="1.1" xmlns="http://www.w3.org/2000/svg" p-id="4317" xmlns:xlink="http://www.w3.org/1999/xlink" width="128" height="128"><path d="M97.12 94.56h849.12A33.44 33.44 0 0 1 979.68 128v624a33.6 33.6 0 0 1-33.44 33.44H97.12A33.44 33.44 0 0 1 64 752V128a33.44 33.44 0 0 1 33.12-33.44z" fill="#CFD8DC" p-id="4318"></path><path d="M97.12 94.56v5.92h849.12A27.52 27.52 0 0 1 973.6 128v624a27.52 27.52 0 0 1-27.36 27.36H97.12A27.36 27.36 0 0 1 69.92 752V128a27.36 27.36 0 0 1 27.2-27.36v-12.16A39.36 39.36 0 0 0 57.92 128v624a39.36 39.36 0 0 0 39.2 39.36h849.12A39.36 39.36 0 0 0 985.6 752V128a39.36 39.36 0 0 0-39.36-39.36H97.12z" fill="#455A64" p-id="4319"></path><path d="M154.88 157.76h739.04a29.12 29.12 0 0 1 28.96 28.96V646.4a29.12 29.12 0 0 1-28.96 29.12H154.88a29.12 29.12 0 0 1-28.96-29.12V186.72a29.12 29.12 0 0 1 28.96-28.96z" fill="#03A9F4" p-id="4320"></path><path d="M154.88 157.76v5.92h739.04a23.36 23.36 0 0 1 23.04 23.04V646.4a23.2 23.2 0 0 1-23.04 23.04H154.88a23.2 23.2 0 0 1-23.04-23.04V186.72a23.2 23.2 0 0 1 23.04-23.04v-12a35.52 35.52 0 0 0-35.04 35.04V646.4a35.2 35.2 0 0 0 35.04 35.04h739.04a35.2 35.2 0 0 0 35.04-35.04V186.72a35.52 35.52 0 0 0-35.04-35.04H154.88z" fill="#455A64" p-id="4321"></path><path d="M431.2 789.44H617.6l17.92 112.96H413.28l17.92-112.96z" fill="#CFD8DC" p-id="4322"></path><path d="M431.2 789.44v5.92h181.28l16 100.96H420.32l16.8-105.92-5.92-0.96v5.92-5.92l-5.92-0.96-19.04 119.84h236.32l-19.84-124.96H426.08l-0.8 5.12 5.92 0.96z" fill="#455A64" p-id="4323"></path><path d="M341.28 902.24h366.24v58.08H341.28z" fill="#CFD8DC" p-id="4324"></path><path d="M341.28 902.4v5.92h360.16v46.08H347.36V902.4h-6.08v5.92-5.92h-5.92v64h378.08v-70.08H335.36v6.08h5.92z" fill="#455A64" p-id="4325"></path><path d="M961.28 785.92h-880A17.6 17.6 0 0 1 64 768v-125.44h914.88V768a17.6 17.6 0 0 1-17.6 17.92z" fill="#FFFFFF" p-id="4326"></path><path d="M961.28 785.92v-6.08h-880a11.52 11.52 0 0 1-11.36-11.84v-119.52H972.8V768a11.52 11.52 0 0 1-11.52 11.52v12A23.52 23.52 0 0 0 984.8 768v-131.52H57.92V768a23.52 23.52 0 0 0 23.52 23.52h880z" fill="#455A64" p-id="4327"></path><path d="M524.48 685.12a33.12 33.12 0 1 1-33.28 33.12 33.12 33.12 0 0 1 33.28-33.12z" fill="#E84C3D" p-id="4328"></path><path d="M524.48 759.04a40.8 40.8 0 1 1 40.8-40.8 40.96 40.96 0 0 1-40.8 40.8z" fill="#F27049" p-id="4329"></path><path d="M524.48 759.04v-3.36a37.44 37.44 0 1 1 37.44-37.44 37.6 37.6 0 0 1-37.44 37.44v6.72A44.16 44.16 0 1 0 480 718.24a44.32 44.32 0 0 0 44.32 44.16z" fill="#455A64" p-id="4330"></path><path d="M681.6 488l-52.96 52.96 52.96 52.64 15.68-15.68-37.28-36.96 37.28-37.28-15.68-15.68z" fill="#FFFFFF" p-id="4331"></path><path d="M681.6 488l-2.88-2.72-55.68 55.68 58.56 58.24 21.28-21.28-37.28-37.12 37.28-37.12-21.28-21.28-2.88 2.88 2.88 2.72-2.88 2.88 12.8 12.8-37.12 37.28 37.12 36.96-9.92 10.08-47.2-47.04 50.08-50.08-2.88-2.88-2.88 2.88 2.88-2.88z" fill="#455A64" p-id="4332"></path><path d="M783.84 503.68l37.12 37.28-37.12 36.96 15.68 15.68 52.64-52.64-52.64-52.96-15.68 15.68z" fill="#FFFFFF" p-id="4333"></path><path d="M783.84 503.68l-2.88 2.88 34.24 34.24-36.96 37.12 21.28 21.28 58.24-58.24-58.24-58.56-18.56 18.4 2.88 2.88h4-4l-2.88 2.88 2.88-2.88h-4v9.6l19.68-19.52 47.04 47.2-47.04 47.04-10.08-10.08 37.12-36.96-46.72-46.88v9.6h4z" fill="#455A64" p-id="4334"></path><path d="M702.08 607.072l59.744-151.872 20.544 8.08-59.744 151.872z" fill="#FFFFFF" p-id="4335"></path><path d="M782.4 463.2l-3.68-1.44-58.24 148.16-13.28-5.12 56.96-144.48 16.8 6.56 1.44-3.68-3.68-1.44 3.68 1.44 1.44-3.68-24.32-9.6-62.56 159.36 28 11.04 62.72-159.36-3.84-1.44-1.44 3.68z" fill="#455A64" p-id="4336"></path><path d="M445.12 319.52v194.24l158.56-92-158.56-102.24z" fill="#F2C749" p-id="4337"></path><path d="M445.12 319.52h-8v208.16l181.92-105.6-181.92-117.28v14.72h8l-4.32 6.72 147.52 95.04-135.2 78.56V319.52h-8l-4.32 6.72 4.32-6.72z" fill="#455A64" p-id="4338"></path></svg>