<?xml version="1.0" standalone="no"?><!DOCTYPE svg PUBLIC "-//W3C//DTD SVG 1.1//EN" "http://www.w3.org/Graphics/SVG/1.1/DTD/svg11.dtd"><svg t="1704350845713" class="icon" viewBox="0 0 1024 1024" version="1.1" xmlns="http://www.w3.org/2000/svg" p-id="4403" xmlns:xlink="http://www.w3.org/1999/xlink" width="128" height="128"><path d="M25.600256 512c0 268.6208 217.7792 486.4 486.4 486.4s486.4-217.7792 486.4-486.4S780.621056 25.6 512.000256 25.6 25.600256 243.3792 25.600256 512z" fill="#FFFFFF" fill-opacity="0" p-id="4404"></path><path d="M877.209856 762.6496a38.144 38.144 0 0 0-13.568-29.0048l0.128-0.128-134.5792-115.0208-0.1024 0.128a38.144 38.144 0 0 0-24.9088-9.344 38.0928 38.0928 0 0 0-24.8576 9.4208l-0.128-0.128-134.2464 115.3792 0.128 0.128a38.144 38.144 0 0 0-13.4656 29.056c0.0256 21.2224 17.2288 38.4 38.4512 38.3488 9.5488 0 18.1504-3.6352 24.8576-9.3952l0.128 0.128 70.912-60.9792 0.2816 190.1056a38.4 38.4 0 1 0 76.8-0.1024l-0.2816-190.1056 71.0912 60.7744 0.128-0.128c6.7072 5.7344 15.3344 9.344 24.8832 9.3184a38.4 38.4 0 0 0 38.3488-38.4512" fill="#0968B0" p-id="4405"></path><path d="M972.800256 517.6832c-0.2048-135.1424-107.8272-244.7616-241.9456-248.8576C697.779456 157.6704 594.867456 76.6208 472.960256 76.7744c-139.8528 0.2048-254.5408 107.2128-267.1872 243.712C115.712256 351.9232 51.046656 437.4528 51.200256 538.1888a230.4 230.4 0 0 0 230.7328 230.0928l153.6-0.2304a38.4 38.4 0 1 0-0.1024-76.8l-153.6 0.2304A153.8304 153.8304 0 0 1 128.000256 538.0864a153.6768 153.6768 0 0 1 103.0656-145.1008l46.6176-16.256 4.5568-49.152a191.0272 191.0272 0 0 1 190.8224-174.0032c80.0768-0.1024 152.2688 50.7392 180.0192 125.0304-103.808 30.3616-179.6608 126.1824-179.4816 239.7952a38.4 38.4 0 1 0 76.8-0.128c-0.1536-94.4896 76.0576-171.5456 170.2656-172.9024l7.8592 0.2048A171.9296 171.9296 0 0 1 896.000256 517.7856a171.008 171.008 0 0 1-13.5168 66.1248l0.6656-0.5632 0.0256 0.0256a38.4 38.4 0 0 0 70.528 30.3104l0.0256 0.0256A248.2176 248.2176 0 0 0 972.800256 517.6832" fill="#8CC6F4" p-id="4406"></path></svg>