<?xml version="1.0" standalone="no"?><!DOCTYPE svg PUBLIC "-//W3C//DTD SVG 1.1//EN" "http://www.w3.org/Graphics/SVG/1.1/DTD/svg11.dtd"><svg t="1703953477878" class="icon" viewBox="0 0 1024 1024" version="1.1" xmlns="http://www.w3.org/2000/svg" p-id="1057" xmlns:xlink="http://www.w3.org/1999/xlink" width="32" height="32"><path d="M522.24 186.88c81.92 0 156.16 30.72 212.48 79.36h102.4c-74.24-94.72-186.88-156.16-314.88-156.16-161.28 0-299.52 94.72-363.52 232.96h84.48c58.88-94.72 161.28-156.16 279.04-156.16zM916.48 435.2h-76.8c5.12 15.36 7.68 33.28 7.68 51.2v43.52c-10.24 171.52-151.04 309.76-325.12 309.76C358.4 837.12 225.28 716.8 199.68 560.64l-76.8-20.48c12.8 209.92 186.88 376.32 399.36 376.32 220.16 0 401.92-179.2 401.92-401.92 0-28.16-2.56-53.76-7.68-79.36z" fill="#E19B01" p-id="1058"></path><path d="M839.68 414.72l81.92-140.8s-79.36 43.52-92.16 46.08c-12.8 2.56-212.48-2.56-232.96 5.12-20.48 5.12-43.52 10.24-61.44 48.64-15.36 38.4-81.92 209.92-81.92 209.92l-125.44-87.04 56.32-89.6-12.8 40.96h104.96l28.16-74.24H166.4s-38.4 7.68-40.96 40.96c0 33.28 2.56 97.28 2.56 97.28s35.84-61.44 61.44-46.08c23.04 17.92 320 302.08 320 302.08l71.68-222.72h176.64l35.84-74.24-189.44-5.12 20.48-58.88 215.04 7.68z" fill="#E19B01" p-id="1059"></path></svg>