<?xml version="1.0" standalone="no"?><!DOCTYPE svg PUBLIC "-//W3C//DTD SVG 1.1//EN" "http://www.w3.org/Graphics/SVG/1.1/DTD/svg11.dtd"><svg t="1704129122664" class="icon" viewBox="0 0 1024 1024" version="1.1" xmlns="http://www.w3.org/2000/svg" p-id="4355" width="128" height="128" xmlns:xlink="http://www.w3.org/1999/xlink"><path d="M156.732128 90.889666l710.50356 0 0 915.436116-710.50356 0 0-915.436116Z" fill="#DBE0ED" p-id="4356"></path><path d="M814.213034 1024H209.754781a70.696872 70.696872 0 0 1-70.696871-70.696872V143.912319a70.696872 70.696872 0 0 1 70.696871-70.696871h604.458253a70.696872 70.696872 0 0 1 70.696871 70.696871v809.390809a70.696872 70.696872 0 0 1-70.696871 70.696872zM209.754781 108.563883a35.348436 35.348436 0 0 0-35.348435 35.348436v809.390809a35.348436 35.348436 0 0 0 35.348435 35.348436h604.458253a35.348436 35.348436 0 0 0 35.348436-35.348436V143.912319a35.348436 35.348436 0 0 0-35.348436-35.348436z" fill="#8A98B6" p-id="4357"></path><path d="M642.066151 924.317411H227.782484V166.005092h568.491219V768.872665l-154.207552 155.444746z" fill="#FFFFFF" p-id="4358"></path><path d="M645.777737 933.15452H218.945375V157.167983h586.165437v615.327896z m-409.246516-17.674218H638.354566l148.993657-150.230852V174.842201H236.619593z" fill="#8A98B6" p-id="4359"></path><path d="M458.342656 63.494628H334.092904v85.366472a41.004186 41.004186 0 0 0 41.004186 41.004186h273.243409a41.004186 41.004186 0 0 0 41.004185-41.004186V63.494628H567.657694" fill="#FFFFFF" p-id="4360"></path><path d="M648.42887 198.790766H375.09709a49.841294 49.841294 0 0 1-49.841295-49.841295V54.657519h133.086861a8.837109 8.837109 0 0 1 0 17.674218H342.930013v76.529363a32.167077 32.167077 0 0 0 32.167077 32.167077h273.243409a32.167077 32.167077 0 0 0 32.167076-32.167077V72.331737H567.657694a8.837109 8.837109 0 0 1 0-17.674218h130.524099v94.291952a49.841294 49.841294 0 0 1-49.752923 49.841295z" fill="#8A98B6" p-id="4361"></path><path d="M458.342656 63.494628a54.657519 54.657519 0 1 1 109.315038 0" fill="#FFFFFF" p-id="4362"></path><path d="M567.657694 72.331737a8.837109 8.837109 0 0 1-8.837109-8.837109 45.82041 45.82041 0 1 0-91.64082 0 8.837109 8.837109 0 1 1-17.674218 0 63.494628 63.494628 0 1 1 126.989256 0 8.837109 8.837109 0 0 1-8.837109 8.837109z" fill="#8A98B6" p-id="4363"></path><path d="M511.718794 63.494628m-21.12069 0a21.12069 21.12069 0 1 0 42.241381 0 21.12069 21.12069 0 1 0-42.241381 0Z" fill="#157EFB" p-id="4364"></path><path d="M348.674134 314.556893h293.745502v54.613334H348.674134zM348.674134 447.732125h191.323409v54.613333H348.674134zM348.674134 580.995728h121.68699v54.613333H348.674134z" fill="#157EFB" p-id="4365"></path><path d="M709.846777 840.011392l101.273269-100.389558" fill="#FFFFFF" p-id="4366"></path><path d="M709.846777 866.169234a26.511327 26.511327 0 0 1-18.6463-45.334369l101.273269-100.477929a26.511327 26.511327 0 1 1 37.2926 37.646084L728.493077 858.480949a26.511327 26.511327 0 0 1-18.6463 7.688285z" fill="#157EFB" p-id="4367"></path><path d="M666.229776 881.880497m-0.245128 61.063931a61.064423 61.064423 0 1 0 0.490256-122.127862 61.064423 61.064423 0 1 0-0.490256 122.127862Z" fill="#FFFFFF" p-id="4368"></path><path d="M666.368201 969.563409a87.57575 87.57575 0 0 1 0-175.1515 87.57575 87.57575 0 0 1 0 175.1515z m0-122.128846a34.553096 34.553096 0 0 0 0 69.106192 34.553096 34.553096 0 0 0 0-69.106192z" fill="#157EFB" p-id="4369"></path><path d="M765.608935 784.249234l35.260064 32.343819" fill="#FFFFFF" p-id="4370"></path><path d="M800.868999 843.10438a26.511327 26.511327 0 0 1-17.674218-6.981316l-35.348435-32.343819a26.511327 26.511327 0 1 1 35.878662-39.060022l35.348436 32.343819a26.511327 26.511327 0 0 1-17.674218 46.041338z" fill="#157EFB" p-id="4371"></path></svg>