<?xml version="1.0" standalone="no"?><!DOCTYPE svg PUBLIC "-//W3C//DTD SVG 1.1//EN" "http://www.w3.org/Graphics/SVG/1.1/DTD/svg11.dtd"><svg t="1703960085729" class="icon" viewBox="0 0 1024 1024" version="1.1" xmlns="http://www.w3.org/2000/svg" p-id="4367" xmlns:xlink="http://www.w3.org/1999/xlink" width="32" height="32"><path d="M512 512m-512 0a512 512 0 1 0 1024 0 512 512 0 1 0-1024 0Z" fill="#18311A" p-id="4368"></path><path d="M226.645333 334.574933A205.368889 205.368889 0 0 1 346.794667 295.822222c67.015111 0 126.702933 32.233244 165.205333 82.443378C550.5024 328.055467 610.190222 295.822222 677.205333 295.822222 793.326933 295.822222 887.466667 392.612978 887.466667 512v216.177778h-90.112V512c0-68.221156-53.794133-123.528533-120.149334-123.528533-66.3552 0-120.149333 55.296-120.149333 123.528533v216.177778h-90.112V512c0-68.221156-53.794133-123.528533-120.149333-123.528533-66.3552 0-120.149333 55.296-120.149334 123.528533v216.177778H136.533333V295.822222h90.112v38.752711z" fill="#FFFFFF" p-id="4369"></path></svg>